<?xml version="1.0" encoding="UTF-8" standalone="no"?>
<!-- Created with Inkscape (http://www.inkscape.org/) -->

<svg
   xmlns:ns0="http://www.iki.fi/pav/software/textext/"
   xmlns:dc="http://purl.org/dc/elements/1.1/"
   xmlns:cc="http://creativecommons.org/ns#"
   xmlns:rdf="http://www.w3.org/1999/02/22-rdf-syntax-ns#"
   xmlns:svg="http://www.w3.org/2000/svg"
   xmlns="http://www.w3.org/2000/svg"
   xmlns:sodipodi="http://sodipodi.sourceforge.net/DTD/sodipodi-0.dtd"
   xmlns:inkscape="http://www.inkscape.org/namespaces/inkscape"
   width="102.37846mm"
   height="78.455513mm"
   viewBox="0 0 362.75834 277.99197"
   id="svg4361"
   version="1.1"
   inkscape:version="0.91 r13725"
   sodipodi:docname="Decomposition3.svg">
  <sodipodi:namedview
     id="base"
     pagecolor="#ffffff"
     bordercolor="#666666"
     borderopacity="1.0"
     inkscape:pageopacity="0.0"
     inkscape:pageshadow="2"
     inkscape:zoom="0.98994949"
     inkscape:cx="35.747593"
     inkscape:cy="168.94502"
     inkscape:document-units="px"
     inkscape:current-layer="layer1"
     showgrid="false"
     inkscape:snap-object-midpoints="false"
     fit-margin-top="0"
     fit-margin-left="0"
     fit-margin-right="0"
     fit-margin-bottom="0"
     inkscape:window-width="1205"
     inkscape:window-height="697"
     inkscape:window-x="67"
     inkscape:window-y="675"
     inkscape:window-maximized="1"
     inkscape:object-paths="true"
     inkscape:snap-intersection-paths="true"
     inkscape:object-nodes="true" />
  <defs
     id="defs4363" />
  <metadata
     id="metadata4366">
    <rdf:RDF>
      <cc:Work
         rdf:about="">
        <dc:format>image/svg+xml</dc:format>
        <dc:type
           rdf:resource="http://purl.org/dc/dcmitype/StillImage" />
        <dc:title></dc:title>
      </cc:Work>
    </rdf:RDF>
  </metadata>
  <g
     transform="translate(0.88056672,16.52965)"
     id="layer1"
     inkscape:groupmode="layer"
     inkscape:label="Ebene 1">
    <path
       style="opacity:1;fill:none;fill-opacity:0.48743723;stroke:#4d4d4d;stroke-width:2;stroke-linecap:butt;stroke-linejoin:miter;stroke-miterlimit:4;stroke-dasharray:2, 2;stroke-dashoffset:0;stroke-opacity:1"
       d="M 1.0097656,11.810547 C 52.268436,60.04121 119.66882,86.914297 189.70508,87.044922 252.09259,87.030367 312.65739,65.783013 361.63477,26.728516"
       transform="translate(-1.205064,-27.611906)"
       id="path4184"
       inkscape:connector-curvature="0"
       sodipodi:nodetypes="ccc" />
    <circle
       transform="scale(-1,-1)"
       r="4.6428571"
       cy="-199.07553"
       cx="-160.19458"
       id="path4144"
       style="opacity:1;fill:#646464;fill-opacity:1;stroke:#0000ff;stroke-width:0;stroke-linecap:butt;stroke-linejoin:round;stroke-miterlimit:4;stroke-dasharray:none;stroke-dashoffset:0;stroke-opacity:1" />
    <circle
       transform="scale(-1,-1)"
       r="4.6428571"
       cy="-136.57552"
       cx="-123.40889"
       id="path4144-3"
       style="opacity:1;fill:#646464;fill-opacity:1;stroke:#0000ff;stroke-width:0;stroke-linecap:butt;stroke-linejoin:round;stroke-miterlimit:4;stroke-dasharray:none;stroke-dashoffset:0;stroke-opacity:1" />
    <circle
       transform="scale(-1,-1)"
       r="4.6428571"
       cy="-136.57552"
       cx="-179.83745"
       id="path4144-5"
       style="opacity:1;fill:#646464;fill-opacity:1;stroke:#0000ff;stroke-width:0;stroke-linecap:butt;stroke-linejoin:round;stroke-miterlimit:4;stroke-dasharray:none;stroke-dashoffset:0;stroke-opacity:1" />
    <circle
       transform="scale(-1,-1)"
       r="4.6428571"
       cy="-108.71838"
       cx="-164.12317"
       id="path4144-0"
       style="opacity:1;fill:#646464;fill-opacity:1;stroke:#0000ff;stroke-width:0;stroke-linecap:butt;stroke-linejoin:round;stroke-miterlimit:4;stroke-dasharray:none;stroke-dashoffset:0;stroke-opacity:1" />
    <circle
       transform="scale(-1,-1)"
       r="4.6428571"
       cy="-185.86127"
       cx="-225.55174"
       id="path4144-39"
       style="opacity:1;fill:#646464;fill-opacity:1;stroke:#0000ff;stroke-width:0;stroke-linecap:butt;stroke-linejoin:round;stroke-miterlimit:4;stroke-dasharray:none;stroke-dashoffset:0;stroke-opacity:1" />
    <circle
       transform="scale(-1,-1)"
       r="4.6428571"
       cy="-155.86125"
       cx="-248.40889"
       id="path4144-56"
       style="opacity:1;fill:#646464;fill-opacity:1;stroke:#0000ff;stroke-width:0;stroke-linecap:butt;stroke-linejoin:round;stroke-miterlimit:4;stroke-dasharray:none;stroke-dashoffset:0;stroke-opacity:1" />
    <circle
       transform="scale(-1,-1)"
       r="4.6428571"
       cy="-188.0041"
       cx="-49.123169"
       id="path4144-7"
       style="opacity:1;fill:#646464;fill-opacity:1;stroke:#0000ff;stroke-width:0;stroke-linecap:butt;stroke-linejoin:round;stroke-miterlimit:4;stroke-dasharray:none;stroke-dashoffset:0;stroke-opacity:1" />
    <circle
       transform="scale(-1,-1)"
       r="4.6428571"
       cy="-121.57553"
       cx="-213.40887"
       id="path4144-07"
       style="opacity:1;fill:#646464;fill-opacity:1;stroke:#0000ff;stroke-width:0;stroke-linecap:butt;stroke-linejoin:round;stroke-miterlimit:4;stroke-dasharray:none;stroke-dashoffset:0;stroke-opacity:1" />
    <circle
       transform="scale(-1,-1)"
       r="4.6428571"
       cy="-86.575516"
       cx="-161.26601"
       id="path4144-1"
       style="opacity:1;fill:#646464;fill-opacity:1;stroke:#0000ff;stroke-width:0;stroke-linecap:butt;stroke-linejoin:round;stroke-miterlimit:4;stroke-dasharray:none;stroke-dashoffset:0;stroke-opacity:1" />
    <circle
       transform="scale(-1,-1)"
       r="4.6428571"
       cy="-173.0041"
       cx="-118.40889"
       id="path4144-38"
       style="opacity:1;fill:#646464;fill-opacity:1;stroke:#0000ff;stroke-width:0;stroke-linecap:butt;stroke-linejoin:round;stroke-miterlimit:4;stroke-dasharray:none;stroke-dashoffset:0;stroke-opacity:1" />
    <circle
       transform="scale(-1,-1)"
       r="4.6428571"
       cy="-120.14696"
       cx="-65.551758"
       id="path4144-2"
       style="opacity:1;fill:#646464;fill-opacity:1;stroke:#0000ff;stroke-width:0;stroke-linecap:butt;stroke-linejoin:round;stroke-miterlimit:4;stroke-dasharray:none;stroke-dashoffset:0;stroke-opacity:1" />
    <circle
       transform="scale(-1,-1)"
       r="4.6428571"
       cy="-38.004089"
       cx="-226.9803"
       id="path4144-24"
       style="opacity:1;fill:#646464;fill-opacity:1;stroke:#0000ff;stroke-width:0;stroke-linecap:butt;stroke-linejoin:round;stroke-miterlimit:4;stroke-dasharray:none;stroke-dashoffset:0;stroke-opacity:1" />
    <circle
       transform="scale(-1,-1)"
       r="4.6428571"
       cy="-34.432663"
       cx="-290.55173"
       id="path4144-4"
       style="opacity:1;fill:#646464;fill-opacity:1;stroke:#0000ff;stroke-width:0;stroke-linecap:butt;stroke-linejoin:round;stroke-miterlimit:4;stroke-dasharray:none;stroke-dashoffset:0;stroke-opacity:1" />
    <circle
       transform="scale(-1,-1)"
       r="4.6428571"
       cy="-235.86124"
       cx="-294.83746"
       id="path4144-6"
       style="opacity:1;fill:#646464;fill-opacity:1;stroke:#0000ff;stroke-width:0;stroke-linecap:butt;stroke-linejoin:round;stroke-miterlimit:4;stroke-dasharray:none;stroke-dashoffset:0;stroke-opacity:1" />
    <circle
       transform="scale(-1,-1)"
       r="4.6428571"
       cy="-181.57553"
       cx="-337.69458"
       id="path4144-9"
       style="opacity:1;fill:#646464;fill-opacity:1;stroke:#0000ff;stroke-width:0;stroke-linecap:butt;stroke-linejoin:round;stroke-miterlimit:4;stroke-dasharray:none;stroke-dashoffset:0;stroke-opacity:1" />
    <circle
       transform="scale(-1,-1)"
       r="4.6428571"
       cy="-191.57555"
       cx="-277.69461"
       id="path4144-64"
       style="opacity:1;fill:#646464;fill-opacity:1;stroke:#0000ff;stroke-width:0;stroke-linecap:butt;stroke-linejoin:round;stroke-miterlimit:4;stroke-dasharray:none;stroke-dashoffset:0;stroke-opacity:1" />
    <circle
       transform="scale(-1,-1)"
       r="4.6428571"
       cy="-234.43268"
       cx="-225.55173"
       id="path4144-13"
       style="opacity:1;fill:#646464;fill-opacity:1;stroke:#0000ff;stroke-width:0;stroke-linecap:butt;stroke-linejoin:round;stroke-miterlimit:4;stroke-dasharray:none;stroke-dashoffset:0;stroke-opacity:1" />
    <circle
       transform="scale(-1,-1)"
       r="4.6428571"
       cy="-240.86125"
       cx="-146.26602"
       id="path4144-46"
       style="opacity:1;fill:#646464;fill-opacity:1;stroke:#0000ff;stroke-width:0;stroke-linecap:butt;stroke-linejoin:round;stroke-miterlimit:4;stroke-dasharray:none;stroke-dashoffset:0;stroke-opacity:1" />
    <circle
       transform="scale(-1,-1)"
       r="4.6428571"
       cy="-101.57552"
       cx="-35.551697"
       id="path4144-06"
       style="opacity:1;fill:#646464;fill-opacity:1;stroke:#0000ff;stroke-width:0;stroke-linecap:butt;stroke-linejoin:round;stroke-miterlimit:4;stroke-dasharray:none;stroke-dashoffset:0;stroke-opacity:1" />
    <circle
       transform="scale(-1,-1)"
       r="4.6428571"
       cy="-68.718399"
       cx="-105.55173"
       id="path4144-11"
       style="opacity:1;fill:#646464;fill-opacity:1;stroke:#0000ff;stroke-width:0;stroke-linecap:butt;stroke-linejoin:round;stroke-miterlimit:4;stroke-dasharray:none;stroke-dashoffset:0;stroke-opacity:1" />
    <circle
       transform="scale(-1,-1)"
       r="4.6428571"
       cy="-80.146957"
       cx="-64.837402"
       id="path4144-398"
       style="opacity:1;fill:#646464;fill-opacity:1;stroke:#0000ff;stroke-width:0;stroke-linecap:butt;stroke-linejoin:round;stroke-miterlimit:4;stroke-dasharray:none;stroke-dashoffset:0;stroke-opacity:1" />
    <circle
       transform="scale(-1,-1)"
       r="4.6428571"
       cy="-150.14697"
       cx="-46.266022"
       id="path4144-25"
       style="opacity:1;fill:#646464;fill-opacity:1;stroke:#0000ff;stroke-width:0;stroke-linecap:butt;stroke-linejoin:round;stroke-miterlimit:4;stroke-dasharray:none;stroke-dashoffset:0;stroke-opacity:1" />
    <circle
       transform="scale(-1,-1)"
       r="4.6428571"
       cy="-155.86125"
       cx="-16.980286"
       id="path4144-35"
       style="opacity:1;fill:#646464;fill-opacity:1;stroke:#0000ff;stroke-width:0;stroke-linecap:butt;stroke-linejoin:round;stroke-miterlimit:4;stroke-dasharray:none;stroke-dashoffset:0;stroke-opacity:1" />
    <circle
       transform="scale(-1,-1)"
       r="4.6428571"
       cy="-35.146973"
       cx="-126.26601"
       id="path4144-95"
       style="opacity:1;fill:#646464;fill-opacity:1;stroke:#0000ff;stroke-width:0;stroke-linecap:butt;stroke-linejoin:round;stroke-miterlimit:4;stroke-dasharray:none;stroke-dashoffset:0;stroke-opacity:1" />
    <circle
       transform="scale(-1,-1)"
       r="4.6428571"
       cy="-228.0041"
       cx="-122.6946"
       id="path4144-91"
       style="opacity:1;fill:#646464;fill-opacity:1;stroke:#0000ff;stroke-width:0;stroke-linecap:butt;stroke-linejoin:round;stroke-miterlimit:4;stroke-dasharray:none;stroke-dashoffset:0;stroke-opacity:1" />
    <circle
       transform="scale(-1,-1)"
       r="4.6428571"
       cy="-101.13223"
       cx="-254.30849"
       id="path4144-07-2"
       style="opacity:1;fill:#646464;fill-opacity:1;stroke:#0000ff;stroke-width:0;stroke-linecap:butt;stroke-linejoin:round;stroke-miterlimit:4;stroke-dasharray:none;stroke-dashoffset:0;stroke-opacity:1" />
    <circle
       transform="scale(-1,-1)"
       r="4.6428571"
       cy="-128.27509"
       cx="-280.02277"
       id="path4144-07-22"
       style="opacity:1;fill:#646464;fill-opacity:1;stroke:#0000ff;stroke-width:0;stroke-linecap:butt;stroke-linejoin:round;stroke-miterlimit:4;stroke-dasharray:none;stroke-dashoffset:0;stroke-opacity:1" />
    <circle
       transform="scale(-1,-1)"
       r="4.6428571"
       cy="-73.275085"
       cx="-303.59421"
       id="path4144-07-28"
       style="opacity:1;fill:#646464;fill-opacity:1;stroke:#0000ff;stroke-width:0;stroke-linecap:butt;stroke-linejoin:round;stroke-miterlimit:4;stroke-dasharray:none;stroke-dashoffset:0;stroke-opacity:1" />
    <circle
       transform="scale(-1,-1)"
       r="4.6428571"
       cy="-102.56079"
       cx="-347.16562"
       id="path4144-07-3"
       style="opacity:1;fill:#646464;fill-opacity:1;stroke:#0000ff;stroke-width:0;stroke-linecap:butt;stroke-linejoin:round;stroke-miterlimit:4;stroke-dasharray:none;stroke-dashoffset:0;stroke-opacity:1" />
    <path
       inkscape:connector-curvature="0"
       id="path5089"
       d="m 290.55173,34.432665 13.04246,38.84242 43.57143,29.285705 m -43.57143,-29.285705 -49.28571,27.857145 25.71429,27.14285 m -25.71429,-27.14285 -40.8996,20.4433"
       style="fill:none;fill-rule:evenodd;stroke:#ff6600;stroke-width:3;stroke-linecap:round;stroke-linejoin:round;stroke-miterlimit:4;stroke-dasharray:none;stroke-opacity:1" />
    <path
       inkscape:connector-curvature="0"
       id="path5091"
       d="m 226.9803,38.004095 21.42859,117.857145 -22.85714,30.00003 m 22.85714,-30.00003 29.28571,35.7143 59.99999,-10.00001 m -59.99999,10.00001 17.14285,44.28569 m -69.2857,-49.99996 -2e-5,48.5714 m 2e-5,-48.5714 -65.35717,13.21426 m 0,0 -13.92855,41.78572"
       style="fill:none;fill-rule:evenodd;stroke:#006400;stroke-width:3;stroke-linecap:round;stroke-linejoin:round;stroke-miterlimit:4;stroke-dasharray:none;stroke-opacity:1" />
    <path
       inkscape:connector-curvature="0"
       id="path5093"
       d="m 126.26601,35.146975 -20.71428,33.57142 m -40.714324,11.42856 0.71435,39.999995 m -30.00006,-18.57144 29.28571,-21.428555 40.714324,-11.42856 55.71428,17.85712 2.85716,22.142865 -40.71428,27.85713 m 40.71428,-27.85713 15.71428,27.85713"
       style="fill:none;fill-rule:evenodd;stroke:#800080;stroke-width:3;stroke-linecap:round;stroke-linejoin:round;stroke-miterlimit:4;stroke-dasharray:none;stroke-opacity:1" />
    <path
       inkscape:connector-curvature="0"
       id="path5095"
       d="m 123.40889,136.57551 -5,36.42859 4.28571,55"
       style="fill:none;fill-rule:evenodd;stroke:#ff0000;stroke-width:3;stroke-linecap:round;stroke-linejoin:round;stroke-miterlimit:4;stroke-dasharray:6, 6;stroke-dashoffset:0;stroke-opacity:1" />
    <path
       inkscape:connector-curvature="0"
       id="path5097"
       d="m 65.551756,120.14695 -19.28573,30.00001 -29.28574,5.71429 m 29.28574,-5.71429 2.85714,37.85714"
       style="fill:none;fill-rule:evenodd;stroke:#0000ff;stroke-width:3;stroke-linecap:round;stroke-linejoin:round;stroke-miterlimit:4;stroke-dasharray:6, 6;stroke-dashoffset:0;stroke-opacity:1" />
    <g
       id="content"
       transform="matrix(2.061623,0,0,-2.061623,-305.68553,1595.5915)"
       xml:space="preserve"
       stroke-miterlimit="10.433"
       font-style="normal"
       font-variant="normal"
       font-weight="normal"
       font-stretch="normal"
       font-size-adjust="none"
       letter-spacing="normal"
       word-spacing="normal"
       ns0:text="$\\mathcal{S}_l$\n\n"
       ns0:preamble="default_packages.tex"
       style="font-style:normal;font-variant:normal;font-weight:normal;font-stretch:normal;letter-spacing:normal;word-spacing:normal;text-anchor:start;fill:#4d4d4d;fill-opacity:1;fill-rule:evenodd;stroke:#000000;stroke-linecap:butt;stroke-linejoin:miter;stroke-miterlimit:10.43299961;stroke-dasharray:none;stroke-dashoffset:0;stroke-opacity:1"><path
         d="m 149.86,709.3 0.01,0.01 0.01,0 0.02,0.01 0.01,0.01 0.02,0 0.02,0.01 0.01,0.01 0.02,0.02 0.02,0.01 0.02,0.01 0.02,0.01 0.02,0.01 0.04,0.03 0.04,0.03 0.02,0.02 0.02,0.01 0.01,0.02 0.02,0.01 0.02,0.02 0.01,0.01 0.02,0.02 0.01,0.01 0.01,0.02 0.01,0.01 0.01,0.02 0.01,0.01 0.01,0.02 0,0 0,0.01 0,0.01 0.01,0 0,0.01 0,0.01 c 0,0.07 -0.06,0.07 -0.12,0.07 -0.34,0 -1.32,-0.43 -1.32,-1.42 0,-0.72 0.81,-1.45 2.03,-1.45 1.62,0 3.51,1.12 3.51,2.47 0,0.94 -1,1.4 -1.81,1.76 -0.7,0.32 -1.16,0.72 -1.16,1.29 0,0.21 0.09,0.6 0.4,0.86 0.3,0.26 0.86,0.29 1,0.29 0.11,0 0.53,-0.01 0.96,-0.2 0.19,-0.09 0.45,-0.21 0.45,-0.63 0,-0.14 -0.01,-0.19 -0.04,-0.3 -0.01,-0.03 -0.02,-0.07 -0.02,-0.1 0,-0.07 0.06,-0.07 0.1,-0.07 0.13,0 0.37,0.1 0.57,0.27 0.12,0.1 0.23,0.23 0.23,0.61 0,0.49 -0.26,0.63 -0.52,0.75 -0.47,0.22 -0.93,0.22 -1.07,0.22 -1.31,0 -2.9,-0.99 -2.9,-2.13 0,-0.83 0.86,-1.23 1.34,-1.44 0.71,-0.32 1.62,-0.77 1.62,-1.61 0,-0.66 -0.49,-1.5 -2.01,-1.5 -1.01,0 -1.83,0.66 -1.83,1.33 0,0.18 0.05,0.36 0.12,0.52 z"
         font-size-adjust="none"
         font-stretch="normal"
         font-style="normal"
         font-variant="normal"
         font-weight="normal"
         letter-spacing="normal"
         stroke-miterlimit="10.433"
         word-spacing="normal"
         style="font-style:normal;font-variant:normal;font-weight:normal;font-stretch:normal;letter-spacing:normal;word-spacing:normal;text-anchor:start;fill:#4d4d4d;fill-opacity:1;fill-rule:evenodd;stroke:#000000;stroke-width:0;stroke-linecap:butt;stroke-linejoin:miter;stroke-miterlimit:10.43299961;stroke-dasharray:none;stroke-dashoffset:0;stroke-opacity:1"
         id="path5256"
         inkscape:connector-curvature="0" /><path
         d="m 156.72,710.25 0,0 0,0 0,0 0,0 0,0 0,0 0,0.01 0,0 0,0 0,0 0,0.01 0,0 0.01,0 0,0.01 0,0 0,0.01 0,0 0,0.01 0,0.01 0,0 0.01,0.01 0,0 0,0 0,0.01 0,0 0,0.01 0,0 0,0 0,0.01 0,0 0,0 0,0 0,0 0,0 0,0.01 0,0 0,0 0,0 0,0 0,0 0,0 c 0,0.03 -0.02,0.1 -0.11,0.1 -0.14,0 -0.72,-0.06 -0.89,-0.07 -0.05,-0.01 -0.15,-0.02 -0.15,-0.16 0,-0.1 0.1,-0.1 0.18,-0.1 0.33,0 0.33,-0.05 0.33,-0.1 0,-0.05 -0.01,-0.1 -0.03,-0.16 l -0.86,-3.43 c -0.02,-0.07 -0.03,-0.15 -0.03,-0.22 0,-0.44 0.4,-0.66 0.73,-0.66 0.17,0 0.38,0.06 0.56,0.37 0.15,0.26 0.25,0.67 0.25,0.7 0,0.09 -0.09,0.09 -0.12,0.09 -0.09,0 -0.11,-0.05 -0.14,-0.17 -0.09,-0.35 -0.22,-0.79 -0.52,-0.79 -0.19,0 -0.24,0.17 -0.24,0.34 0,0.07 0.02,0.2 0.04,0.28 z"
         font-size-adjust="none"
         font-stretch="normal"
         font-style="normal"
         font-variant="normal"
         font-weight="normal"
         letter-spacing="normal"
         stroke-miterlimit="10.433"
         word-spacing="normal"
         style="font-style:normal;font-variant:normal;font-weight:normal;font-stretch:normal;letter-spacing:normal;word-spacing:normal;text-anchor:start;fill:#4d4d4d;fill-opacity:1;fill-rule:evenodd;stroke:#000000;stroke-width:0;stroke-linecap:butt;stroke-linejoin:miter;stroke-miterlimit:10.43299961;stroke-dasharray:none;stroke-dashoffset:0;stroke-opacity:1"
         id="path5258"
         inkscape:connector-curvature="0" /></g>    <g
       style="font-style:normal;font-variant:normal;font-weight:normal;font-stretch:normal;letter-spacing:normal;word-spacing:normal;text-anchor:start;fill:#4d4d4d;fill-opacity:1;fill-rule:evenodd;stroke:#808080;stroke-linecap:butt;stroke-linejoin:miter;stroke-miterlimit:10.43299961;stroke-dasharray:none;stroke-dashoffset:0;stroke-opacity:1"
       ns0:preamble="default_packages.tex"
       ns0:text="$\\mathcal{S}_{l-1}$\n\n\n"
       word-spacing="normal"
       letter-spacing="normal"
       font-size-adjust="none"
       font-stretch="normal"
       font-weight="normal"
       font-variant="normal"
       font-style="normal"
       stroke-miterlimit="10.433"
       xml:space="preserve"
       transform="matrix(2.0833107,0,0,-2.0833107,-308.28781,1526.9413)"
       id="g5369"><path
         id="path5371"
         style="font-style:normal;font-variant:normal;font-weight:normal;font-stretch:normal;letter-spacing:normal;word-spacing:normal;text-anchor:start;fill:#4d4d4d;fill-opacity:1;fill-rule:evenodd;stroke:#808080;stroke-width:0;stroke-linecap:butt;stroke-linejoin:miter;stroke-miterlimit:10.43299961;stroke-dasharray:none;stroke-dashoffset:0;stroke-opacity:1"
         word-spacing="normal"
         stroke-miterlimit="10.433"
         letter-spacing="normal"
         font-weight="normal"
         font-variant="normal"
         font-style="normal"
         font-stretch="normal"
         font-size-adjust="none"
         d="m 149.86,709.3 0.01,0.01 0.01,0 0.02,0.01 0.01,0.01 0.02,0 0.02,0.01 0.01,0.01 0.02,0.02 0.02,0.01 0.02,0.01 0.02,0.01 0.02,0.01 0.04,0.03 0.04,0.03 0.02,0.02 0.02,0.01 0.01,0.02 0.02,0.01 0.02,0.02 0.01,0.01 0.02,0.02 0.01,0.01 0.01,0.02 0.01,0.01 0.01,0.02 0.01,0.01 0.01,0.02 0,0 0,0.01 0,0.01 0.01,0 0,0.01 0,0.01 c 0,0.07 -0.06,0.07 -0.12,0.07 -0.34,0 -1.32,-0.43 -1.32,-1.42 0,-0.72 0.81,-1.45 2.03,-1.45 1.62,0 3.51,1.12 3.51,2.47 0,0.94 -1,1.4 -1.81,1.76 -0.7,0.32 -1.16,0.72 -1.16,1.29 0,0.21 0.09,0.6 0.4,0.86 0.3,0.26 0.86,0.29 1,0.29 0.11,0 0.53,-0.01 0.96,-0.2 0.19,-0.09 0.45,-0.21 0.45,-0.63 0,-0.14 -0.01,-0.19 -0.04,-0.3 -0.01,-0.03 -0.02,-0.07 -0.02,-0.1 0,-0.07 0.06,-0.07 0.1,-0.07 0.13,0 0.37,0.1 0.57,0.27 0.12,0.1 0.23,0.23 0.23,0.61 0,0.49 -0.26,0.63 -0.52,0.75 -0.47,0.22 -0.93,0.22 -1.07,0.22 -1.31,0 -2.9,-0.99 -2.9,-2.13 0,-0.83 0.86,-1.23 1.34,-1.44 0.71,-0.32 1.62,-0.77 1.62,-1.61 0,-0.66 -0.49,-1.5 -2.01,-1.5 -1.01,0 -1.83,0.66 -1.83,1.33 0,0.18 0.05,0.36 0.12,0.52 z"
         inkscape:connector-curvature="0" /><path
         id="path5373"
         style="font-style:normal;font-variant:normal;font-weight:normal;font-stretch:normal;letter-spacing:normal;word-spacing:normal;text-anchor:start;fill:#4d4d4d;fill-opacity:1;fill-rule:evenodd;stroke:#808080;stroke-width:0;stroke-linecap:butt;stroke-linejoin:miter;stroke-miterlimit:10.43299961;stroke-dasharray:none;stroke-dashoffset:0;stroke-opacity:1"
         word-spacing="normal"
         stroke-miterlimit="10.433"
         letter-spacing="normal"
         font-weight="normal"
         font-variant="normal"
         font-style="normal"
         font-stretch="normal"
         font-size-adjust="none"
         d="m 156.72,710.25 0,0 0,0 0,0 0,0 0,0 0,0 0,0.01 0,0 0,0 0,0 0,0.01 0,0 0.01,0 0,0.01 0,0 0,0.01 0,0 0,0.01 0,0.01 0,0 0.01,0.01 0,0 0,0 0,0.01 0,0 0,0.01 0,0 0,0 0,0.01 0,0 0,0 0,0 0,0 0,0 0,0.01 0,0 0,0 0,0 0,0 0,0 0,0 c 0,0.03 -0.02,0.1 -0.11,0.1 -0.14,0 -0.72,-0.06 -0.89,-0.07 -0.05,-0.01 -0.15,-0.02 -0.15,-0.16 0,-0.1 0.1,-0.1 0.18,-0.1 0.33,0 0.33,-0.05 0.33,-0.1 0,-0.05 -0.01,-0.1 -0.03,-0.16 l -0.86,-3.43 c -0.02,-0.07 -0.03,-0.15 -0.03,-0.22 0,-0.44 0.4,-0.66 0.73,-0.66 0.17,0 0.38,0.06 0.56,0.37 0.15,0.26 0.25,0.67 0.25,0.7 0,0.09 -0.09,0.09 -0.12,0.09 -0.09,0 -0.11,-0.05 -0.14,-0.17 -0.09,-0.35 -0.22,-0.79 -0.52,-0.79 -0.19,0 -0.24,0.17 -0.24,0.34 0,0.07 0.02,0.2 0.04,0.28 z"
         inkscape:connector-curvature="0" /><path
         id="path5375"
         style="font-style:normal;font-variant:normal;font-weight:normal;font-stretch:normal;letter-spacing:normal;word-spacing:normal;text-anchor:start;fill:#4d4d4d;fill-opacity:1;fill-rule:evenodd;stroke:#808080;stroke-width:0;stroke-linecap:butt;stroke-linejoin:miter;stroke-miterlimit:10.43299961;stroke-dasharray:none;stroke-dashoffset:0;stroke-opacity:1"
         word-spacing="normal"
         stroke-miterlimit="10.433"
         letter-spacing="normal"
         font-weight="normal"
         font-variant="normal"
         font-style="normal"
         font-stretch="normal"
         font-size-adjust="none"
         d="m 162.51,707.2 0.01,0 0.01,0 0.01,0 0.01,0 0.02,0 0.02,0 0.01,0 0.01,0.01 0.01,0 0.01,0 0.01,0 0.02,0 0.01,0.01 0.01,0 0.01,0 0.01,0.01 0.01,0 0.01,0.01 0.01,0 0.01,0.01 0,0.01 0.01,0 0.01,0.01 0,0 0,0.01 0.01,0 0,0.01 0,0 0,0.01 0.01,0 0,0.01 0,0 0,0.01 0,0.01 0,0 0.01,0.01 0,0.01 0,0 0,0.01 0,0.01 c 0,0.17 -0.16,0.17 -0.28,0.17 l -4.17,0 c -0.11,0 -0.28,0 -0.28,-0.16 0,-0.18 0.16,-0.18 0.28,-0.18 z"
         inkscape:connector-curvature="0" /><path
         id="path5377"
         style="font-style:normal;font-variant:normal;font-weight:normal;font-stretch:normal;letter-spacing:normal;word-spacing:normal;text-anchor:start;fill:#4d4d4d;fill-opacity:1;fill-rule:evenodd;stroke:#808080;stroke-width:0;stroke-linecap:butt;stroke-linejoin:miter;stroke-miterlimit:10.43299961;stroke-dasharray:none;stroke-dashoffset:0;stroke-opacity:1"
         word-spacing="normal"
         stroke-miterlimit="10.433"
         letter-spacing="normal"
         font-weight="normal"
         font-variant="normal"
         font-style="normal"
         font-stretch="normal"
         font-size-adjust="none"
         d="m 165.87,710.05 0,0.01 0,0.01 0,0.01 0,0.01 0,0 0,0.01 0,0.01 0,0.01 0,0 0,0.01 0,0.01 0,0 0,0.01 0,0 0,0.01 0,0 0,0.01 0,0 -0.01,0.01 0,0.01 0,0.01 0,0 -0.01,0.01 0,0.01 -0.01,0 0,0.01 -0.01,0 -0.01,0 0,0.01 -0.01,0 -0.01,0 -0.01,0 0,0 -0.01,0 -0.01,0 0,0.01 -0.01,0 0,0 -0.01,0 -0.01,0 0,0 -0.01,0 -0.01,0 0,0 -0.01,0 -0.01,0 -0.01,0 -0.01,0 -0.01,0 -0.01,0 c -0.44,-0.44 -1.08,-0.45 -1.37,-0.45 l 0,-0.25 c 0.17,0 0.63,0 1.02,0.2 l 0,-3.55 c 0,-0.23 0,-0.32 -0.7,-0.32 l -0.27,0 0,-0.25 c 0.13,0.01 0.99,0.03 1.25,0.03 0.21,0 1.09,-0.02 1.25,-0.03 l 0,0.25 -0.27,0 c -0.7,0 -0.7,0.09 -0.7,0.32 z"
         inkscape:connector-curvature="0" /></g>    <circle
       transform="scale(-1,-1)"
       r="4.6428571"
       cy="-164.6535"
       cx="-163.68105"
       id="path4144-5-2"
       style="opacity:1;fill:#646464;fill-opacity:1;stroke:#0000ff;stroke-width:0;stroke-linecap:butt;stroke-linejoin:round;stroke-miterlimit:4;stroke-dasharray:none;stroke-dashoffset:0;stroke-opacity:1" />
    <path
       style="fill:none;fill-rule:evenodd;stroke:#ff00ff;stroke-width:3.00000024;stroke-linecap:round;stroke-linejoin:miter;stroke-miterlimit:4;stroke-dasharray:6.00000036, 6.00000036;stroke-dashoffset:0;stroke-opacity:1"
       d="m 163.68103,164.6535 16.15641,-28.07799"
       id="path5450"
       inkscape:connector-curvature="0" />
    <path
       style="opacity:1;fill:none;fill-opacity:0.48743723;stroke:#4d4d4d;stroke-width:2;stroke-linecap:butt;stroke-linejoin:miter;stroke-miterlimit:4;stroke-dasharray:2, 2;stroke-dashoffset:0;stroke-opacity:1"
       d="M 1.9824219,126.5957 C 58.76337,160.84093 123.60517,178.99062 189.70508,179.14062 c 60.32016,-0.0967 119.69354,-15.1852 172.90234,-43.93945"
       transform="translate(-1.205064,-27.611906)"
       id="path4184-5"
       inkscape:connector-curvature="0"
       sodipodi:nodetypes="ccc" />
    <path
       style="opacity:1;fill:none;fill-opacity:0.48743723;stroke:#4d4d4d;stroke-width:2;stroke-linecap:butt;stroke-linejoin:miter;stroke-miterlimit:4;stroke-dasharray:2, 2;stroke-dashoffset:0;stroke-opacity:1"
       d="m 1.7636719,248.90625 c 59.3713251,25.7989 123.3144481,39.12499 187.9414081,39.16797 59.07079,-3e-5 117.62682,-11.09809 172.68359,-32.72852"
       transform="translate(-1.205064,-27.611906)"
       id="path4184-1"
       inkscape:connector-curvature="0"
       sodipodi:nodetypes="ccc" />
  </g>
</svg>
